<?xml version="1.0" encoding="UTF-8" standalone="no"?><!DOCTYPE svg PUBLIC "-//W3C//DTD SVG 1.1//EN" "http://www.w3.org/Graphics/SVG/1.1/DTD/svg11.dtd"><svg width="100%" height="100%" viewBox="0 0 456 456" version="1.1" xmlns="http://www.w3.org/2000/svg" xmlns:xlink="http://www.w3.org/1999/xlink" xml:space="preserve" xmlns:serif="http://www.serif.com/" style="fill-rule:evenodd;clip-rule:evenodd;stroke-linecap:round;stroke-linejoin:round;stroke-miterlimit:1.5;"><g><rect x="80" y="89.567" width="301.967" height="300.433" style="fill:#f2eddc;"/><path d="M110.131,130l239.869,0" style="fill:none;stroke:#000;stroke-width:1px;"/><path d="M110.131,130l239.869,-0" style="fill:none;stroke:#364e8c;stroke-width:2px;"/><path d="M110.131,130l239.869,-0" style="fill:none;stroke:#364e8c;stroke-width:2px;"/><path d="M110.131,150l239.869,-0" style="fill:none;stroke:#364e8c;stroke-width:2px;"/><path d="M110.131,170l239.869,0" style="fill:none;stroke:#364e8c;stroke-width:2px;"/><path d="M110.131,190l239.869,0" style="fill:none;stroke:#364e8c;stroke-width:2px;"/><path d="M110.131,210l239.869,0" style="fill:none;stroke:#364e8c;stroke-width:2px;"/><path d="M110.131,230l239.869,0" style="fill:none;stroke:#364e8c;stroke-width:2px;"/><path d="M110.131,250l239.869,0" style="fill:none;stroke:#364e8c;stroke-width:2px;"/><path d="M110.131,270l239.869,0" style="fill:none;stroke:#364e8c;stroke-width:2px;"/><path d="M110.131,290l239.869,0" style="fill:none;stroke:#364e8c;stroke-width:2px;"/><path d="M110.131,310l239.869,0" style="fill:none;stroke:#364e8c;stroke-width:2px;"/><path d="M110.131,330l239.869,0" style="fill:none;stroke:#364e8c;stroke-width:2px;"/><path d="M110.131,350l239.869,0" style="fill:none;stroke:#364e8c;stroke-width:2px;"/><path d="M110.131,370l239.869,0" style="fill:none;stroke:#364e8c;stroke-width:2px;"/><path d="M364.466,364.682l-19.268,17.636l-17.419,-19.03l19.269,-17.637l17.418,19.031Z" style="fill:#282054;"/><path d="M364.466,364.682l-19.268,17.636l-17.419,-19.03l19.269,-17.637l17.418,19.031Z" style="fill:#282054;"/><path d="M84.5,79l25.631,8.36l-18.703,17.695l-6.928,-26.055Z" style="fill:#878787;"/><path d="M364.466,364.682l-19.268,17.636l-254.335,-277.865l19.268,-17.637l254.335,277.866Z" style="fill:#8f4236;"/><path d="M364.466,364.682l-19.268,17.636l-17.419,-19.03l19.269,-17.637l17.418,19.031Z" style="fill:#cb769f;"/></g></svg>